<?xml version="1.0" encoding="iso-8859-1"?>
<!-- Generator: Adobe Illustrator 19.0.0, SVG Export Plug-In . SVG Version: 6.00 Build 0)  -->
<svg version="1.1" id="Layer_1" xmlns="http://www.w3.org/2000/svg" xmlns:xlink="http://www.w3.org/1999/xlink" x="0px" y="0px"
	 viewBox="0 0 460 460" style="enable-background:new 0 0 460 460;" xml:space="preserve">
<g id="XMLID_1637_">
	<g id="Sheet">
		<path id="XMLID_2189_" style="fill:#F2F2F2;" d="M354.688,7.322l67.99,67.99C427.366,80.001,430,86.359,430,92.99V420
			c0,22.091-17.909,40-40,40H70c-22.091,0-40-17.909-40-40V40C30,17.909,47.909,0,70,0h267.01
			C343.641,0,349.999,2.634,354.688,7.322z"/>
		<path id="XMLID_2185_" style="fill:#D2D6D5;" d="M350,120h80v300c0,22.091-17.909,40-40,40H70c-22.092,0-40-17.909-40-40V40
			C30,17.909,47.908,0,70,0h240v80C310,102.091,327.908,120,350,120z"/>
		<path id="XMLID_2183_" style="fill:#AAAFAD;" d="M350,120h80v30l-70.298-17.575C354,131,350,125.877,350,120z"/>
	</g>
	<g id="Color_rouds">
		<path id="XMLID_1579_" style="fill:#9CA09E;" d="M230,332.887c-29.133,0-52.75-23.678-52.75-52.887s23.617-52.887,52.75-52.887
			s52.75,23.678,52.75,52.887S259.133,332.887,230,332.887z"/>
		<path id="XMLID_1168_" style="fill:#F2F2F2;" d="M370,280c0,44.183-35.817,80-80,80c-23.902,0-45.341-10.495-60-27.113
			c12.439-14.101,20-32.606,20-52.887s-7.561-38.786-20-52.887C244.659,210.495,266.098,200,290,200
			C334.183,200,370,235.817,370,280z"/>
		<path id="XMLID_1167_" style="fill:#3C3B42;" d="M210,280c0,20.281,7.561,38.786,20,52.887C215.341,349.505,193.902,360,170,360
			c-44.183,0-80-35.817-80-80s35.817-80,80-80c23.902,0,45.341,10.495,60,27.113C217.561,241.214,210,259.719,210,280z"/>
	</g>
</g>
<g>
</g>
<g>
</g>
<g>
</g>
<g>
</g>
<g>
</g>
<g>
</g>
<g>
</g>
<g>
</g>
<g>
</g>
<g>
</g>
<g>
</g>
<g>
</g>
<g>
</g>
<g>
</g>
<g>
</g>
</svg>
